<?xml version="1.0" standalone="no"?>
<!DOCTYPE svg PUBLIC "-//W3C//DTD SVG 20010904//EN"
 "http://www.w3.org/TR/2001/REC-SVG-20010904/DTD/svg10.dtd">
<svg version="1.0" xmlns="http://www.w3.org/2000/svg"
 width="1000.000000pt" height="1080.000000pt" viewBox="0 0 1000.000000 1080.000000"
 preserveAspectRatio="xMidYMid meet">
<metadata>
Created by potrace 1.15, written by Peter Selinger 2001-2017
</metadata>
<g transform="translate(0.000000,1080.000000) scale(0.100000,-0.100000)"
fill="#000000" stroke="none">
<path d="M0 5400 l0 -5400 5000 0 5000 0 0 5400 0 5400 -5000 0 -5000 0 0
-5400z m5245 3004 c220 -17 519 -83 705 -154 151 -58 371 -169 486 -244 136
-89 203 -137 228 -162 12 -11 44 -38 71 -59 77 -60 288 -279 368 -383 142
-183 280 -417 358 -607 260 -631 271 -1337 30 -1973 -27 -70 -71 -172 -99
-226 -28 -55 -48 -104 -45 -110 3 -6 2 -8 -2 -3 -5 4 -18 -9 -29 -28 -181
-306 -432 -586 -706 -791 -716 -535 -1637 -674 -2482 -374 -239 86 -541 256
-748 423 -200 161 -419 400 -552 602 -206 310 -336 640 -404 1020 -23 131 -27
182 -30 400 -2 238 1 303 25 440 6 33 13 80 16 105 10 75 83 318 141 462 29
76 54 140 54 143 0 14 168 307 213 370 129 183 163 223 347 406 127 126 243
221 395 324 67 46 284 162 389 207 405 176 828 247 1271 212z m-3850 -7898
c25 -11 33 -19 29 -30 -7 -19 -14 -20 -38 -1 -24 18 -56 19 -80 2 -27 -20 -10
-42 49 -61 87 -27 108 -75 54 -128 -29 -29 -33 -30 -90 -25 -68 6 -72 8 -64
29 5 13 12 14 40 5 50 -15 100 1 100 33 0 16 -8 28 -25 36 -87 40 -105 51
-108 67 -14 70 53 106 133 73z m587 -48 l3 -62 36 32 c20 18 45 32 55 32 14 0
9 -9 -21 -40 l-39 -40 42 -60 c40 -57 41 -60 20 -60 -16 0 -32 14 -53 45 -16
25 -33 45 -37 45 -5 0 -8 -20 -8 -45 0 -38 -3 -45 -20 -45 -19 0 -20 7 -20
130 0 122 1 130 20 130 16 0 19 -8 22 -62z m-1353 -24 c12 -15 21 -40 21 -55
0 -29 0 -29 -65 -29 -72 0 -83 -12 -44 -51 17 -17 30 -20 65 -16 43 4 59 -5
28 -17 -45 -17 -106 3 -123 41 -45 98 56 206 118 127z m456 3 c20 -16 28 -35
32 -69 5 -42 3 -50 -25 -78 -38 -37 -80 -40 -119 -6 -24 21 -28 32 -28 76 0
44 4 55 28 76 35 30 78 31 112 1z m622 8 c30 -21 44 -75 32 -120 -25 -88 -143
-88 -168 0 -20 72 20 135 84 135 17 0 40 -7 52 -15z"/>
<path d="M5574 8250 c7 -37 -24 -56 -62 -37 -65 33 -144 22 -129 -18 5 -11 21
-15 66 -15 33 0 70 -4 83 -9 13 -5 57 -17 98 -26 41 -9 92 -28 114 -42 26 -17
66 -29 126 -38 72 -11 97 -20 139 -48 28 -20 67 -41 86 -47 38 -13 41 -21 24
-69 -12 -34 -17 -36 -54 -19 -19 8 -28 9 -37 0 -16 -16 6 -39 53 -54 27 -8 39
-17 39 -30 0 -24 24 -70 45 -88 9 -7 28 -38 42 -68 23 -48 24 -59 14 -87 -17
-49 -15 -53 42 -60 74 -11 92 -19 116 -58 30 -48 27 -59 -24 -89 -25 -15 -45
-35 -45 -45 0 -9 20 -35 44 -57 24 -23 51 -58 59 -77 8 -20 36 -58 62 -84 l47
-47 30 22 c27 20 31 21 48 5 16 -15 18 -14 25 12 3 15 13 35 20 43 22 25 3 93
-44 154 -31 41 -41 64 -41 92 0 20 -9 51 -19 68 -11 18 -19 49 -19 74 1 50 15
54 78 22 43 -22 115 -27 126 -9 4 7 26 10 60 6 l53 -5 -3 33 c-2 23 -14 42
-39 65 l-36 31 -6 -28 c-4 -15 -8 -34 -11 -40 -5 -19 -67 -16 -124 7 -28 11
-66 20 -85 20 -30 0 -35 3 -35 24 0 24 0 24 47 10 141 -43 212 14 121 97 -23
21 -46 35 -51 32 -13 -8 -117 67 -117 86 0 36 -316 220 -527 306 -130 52 -342
116 -379 113 -22 -2 -25 -6 -20 -28z"/>
<path d="M4655 8123 c-11 -3 -40 -20 -64 -39 -24 -19 -51 -34 -59 -34 -8 0
-35 -10 -59 -22 -48 -24 -61 -50 -46 -95 9 -26 14 -28 76 -34 37 -3 68 -7 70
-10 1 -2 16 -23 32 -47 16 -24 37 -48 48 -53 10 -6 16 -17 13 -25 -7 -19 20
-30 39 -14 24 20 38 2 21 -26 -21 -31 -20 -70 2 -89 9 -8 35 -31 57 -51 76
-69 98 -81 155 -87 30 -2 63 -8 72 -12 25 -10 34 21 18 59 -7 17 -14 47 -15
66 -1 19 -3 40 -5 45 -6 26 2 41 29 53 23 10 31 22 36 54 5 25 18 53 34 69 22
21 26 34 23 62 -4 32 -7 36 -43 42 -24 4 -40 13 -44 24 -10 33 -88 88 -205
146 -27 14 -153 26 -185 18z"/>
<path d="M5640 8072 c0 -33 73 -110 135 -143 22 -12 53 -28 68 -36 21 -11 37
-13 60 -6 27 7 32 14 32 38 0 26 -8 33 -74 66 -41 21 -94 40 -118 44 -25 4
-41 11 -37 16 8 14 -25 49 -48 49 -13 0 -18 -7 -18 -28z"/>
<path d="M3570 7918 c-58 -38 -136 -96 -174 -127 -87 -70 -256 -230 -256 -242
0 -19 51 -8 100 21 30 17 50 25 50 17 0 -39 -39 -123 -114 -248 -47 -78 -86
-151 -86 -163 0 -11 -9 -41 -20 -65 -12 -26 -20 -65 -20 -97 0 -45 -6 -64 -40
-119 -22 -36 -64 -114 -94 -173 -90 -180 -94 -257 -40 -816 14 -141 19 -166
44 -209 25 -44 29 -47 35 -27 4 13 0 40 -9 63 -34 91 -60 347 -37 362 6 3 12
-16 16 -42 3 -27 15 -87 25 -135 11 -48 20 -95 20 -105 0 -10 23 -65 50 -123
43 -90 50 -113 50 -166 0 -73 22 -109 116 -191 107 -92 162 -123 219 -123 47
0 54 -3 94 -44 24 -25 55 -47 68 -51 14 -3 48 -17 76 -31 29 -13 69 -29 89
-35 39 -10 103 -80 114 -123 6 -24 144 -116 174 -116 10 0 32 -11 48 -25 39
-32 62 -33 62 0 0 31 32 50 60 35 11 -6 20 -16 20 -21 0 -6 11 -19 23 -30 14
-10 31 -42 41 -76 9 -32 21 -66 26 -75 12 -21 3 -49 -21 -66 -10 -6 -20 -26
-24 -42 -4 -16 -15 -36 -25 -43 -10 -7 -24 -34 -31 -61 -11 -44 -10 -50 10
-77 22 -29 22 -31 5 -50 -14 -15 -15 -24 -6 -42 6 -12 14 -32 17 -44 3 -12 16
-25 28 -28 12 -4 83 -68 158 -142 92 -91 141 -133 149 -128 9 5 11 4 6 -3 -10
-16 78 -58 146 -71 59 -11 147 -50 164 -73 23 -30 43 -97 49 -161 4 -37 10
-65 14 -62 5 2 6 -7 3 -21 -2 -14 3 -42 13 -63 11 -26 16 -56 14 -90 l-4 -52
40 -10 c22 -6 44 -16 48 -23 5 -7 7 -3 4 10 -6 29 12 62 24 43 6 -10 9 -11 9
-1 0 6 5 12 10 12 6 0 10 -9 10 -19 0 -11 4 -22 9 -25 5 -4 7 2 5 11 -2 10 0
25 6 33 8 12 11 13 19 1 7 -10 10 -11 16 0 6 9 11 6 18 -12 8 -18 11 -20 14
-8 3 11 12 15 26 12 25 -5 76 40 58 52 -6 3 -11 1 -11 -4 0 -6 -4 -11 -9 -11
-5 0 -8 12 -7 27 3 25 7 27 50 28 38 0 44 -2 32 -11 -19 -13 -21 -34 -3 -34 6
-1 2 -6 -11 -13 -12 -7 -19 -17 -15 -22 4 -4 0 -5 -9 -2 -30 11 -32 -15 -4
-38 l28 -22 65 43 c36 24 84 49 107 56 44 13 72 42 68 71 -3 13 4 17 32 17 25
0 36 4 36 15 0 8 5 15 11 15 5 0 7 -4 4 -10 -19 -31 52 10 94 54 7 7 25 27 40
42 15 16 46 45 69 64 23 19 41 44 42 55 0 11 3 30 7 43 8 30 163 148 216 164
22 7 49 25 62 42 36 48 85 146 85 171 0 12 7 28 15 35 11 9 15 33 15 90 0 56
4 81 15 90 17 14 75 118 75 135 0 7 9 20 20 30 16 15 20 31 20 82 0 35 -5 73
-10 84 -11 19 -11 19 -50 -1 l-40 -20 -30 21 c-41 31 -129 31 -191 1 -25 -12
-56 -22 -70 -22 -13 0 -35 -7 -47 -16 -21 -14 -22 -14 -22 9 0 31 -16 37 -90
37 -61 0 -66 -3 -107 -66 -10 -16 -11 -11 -6 29 5 44 4 47 -18 47 -13 0 -38
-15 -56 -32 -28 -27 -35 -30 -43 -18 -14 22 -12 28 15 46 35 23 32 53 -5 67
-20 8 -34 23 -42 44 -23 63 -160 96 -268 63 -45 -13 -46 -13 -95 22 -53 36
-124 68 -153 68 -9 0 -23 9 -30 20 -9 14 -23 20 -51 20 -22 0 -43 5 -46 10
-12 19 -73 11 -89 -12 -14 -20 -20 -21 -107 -15 -51 4 -96 12 -99 17 -4 6 -22
18 -42 28 l-36 19 -31 -35 c-17 -19 -31 -37 -31 -39 0 -3 9 -16 20 -30 24 -31
25 -49 4 -57 -31 -12 -72 45 -53 75 4 8 3 19 -4 27 -9 11 -6 18 16 34 15 11
25 24 21 29 -10 16 -43 9 -54 -11 -6 -11 -41 -35 -78 -53 -52 -25 -68 -38 -75
-62 -11 -34 -45 -75 -63 -75 -6 0 -17 7 -24 15 -7 8 -23 15 -36 15 -12 0 -25
4 -28 9 -3 5 -29 0 -57 -10 l-51 -20 -52 29 c-69 39 -78 59 -73 162 2 47 1 95
-4 107 -17 46 -113 68 -211 47 -25 -5 -28 -3 -28 20 0 14 11 60 25 102 14 42
25 96 25 120 0 39 -3 44 -22 44 -13 0 -43 -6 -68 -14 -38 -11 -45 -17 -48 -42
-4 -33 -25 -60 -64 -80 -70 -36 -135 2 -184 108 -23 52 -29 76 -28 133 1 39 6
80 12 92 7 12 12 46 12 75 0 29 6 60 13 68 21 27 70 57 113 70 36 11 45 10 82
-9 23 -12 57 -21 76 -21 30 0 35 3 38 28 3 24 7 27 46 30 25 2 56 -3 74 -13
17 -8 39 -13 49 -10 28 9 59 -32 59 -79 0 -30 10 -56 41 -103 23 -35 44 -63
48 -63 47 1 52 83 11 184 -49 122 -43 150 57 245 43 42 90 86 105 98 36 29 45
68 25 102 -15 26 -15 30 18 85 19 31 38 68 41 82 7 28 56 69 101 85 23 8 30
15 26 29 -11 41 7 69 68 110 33 22 69 40 78 40 29 0 88 28 94 44 4 9 24 18 45
22 57 9 67 17 52 44 l-12 22 -22 -21 c-14 -13 -26 -17 -35 -11 -8 4 -29 6 -48
3 -36 -6 -39 1 -34 70 1 16 -3 35 -9 42 -10 12 -16 12 -41 -1 -32 -16 -37 -9
-14 22 9 14 30 23 57 27 128 18 133 19 170 55 53 51 67 35 44 -49 -22 -76 -16
-82 69 -74 33 4 75 6 93 6 26 0 36 6 44 25 14 31 9 36 -84 66 l-67 22 -6 55
c-4 31 -9 64 -11 73 -7 23 -79 35 -101 16 -15 -12 -15 -11 -4 10 15 29 9 38
-31 46 -36 7 -68 32 -68 53 0 15 -53 98 -69 108 -18 10 -40 -7 -51 -41 -11
-31 -15 -35 -43 -32 -28 3 -34 9 -46 46 -18 57 -64 82 -138 75 -52 -5 -53 -6
-64 -47 -14 -50 -15 -106 -5 -167 8 -45 7 -48 -31 -85 -36 -36 -39 -43 -35
-82 4 -46 -17 -92 -43 -92 -23 0 -55 74 -55 125 0 41 -2 45 -24 45 -13 0 -48
18 -77 40 -30 22 -59 40 -66 40 -16 0 -29 25 -37 71 -5 30 -1 43 24 77 50 70
173 150 189 123 6 -9 16 -4 40 20 18 18 39 43 48 56 8 12 24 23 34 23 20 0 39
28 39 58 0 22 25 47 59 57 18 5 30 0 57 -26 19 -18 34 -36 34 -40 0 -4 -10
-23 -22 -43 -16 -25 -30 -35 -49 -36 -14 0 -33 -6 -42 -13 -16 -11 -16 -14 -3
-32 12 -16 17 -18 27 -7 20 19 39 15 117 -23 58 -29 76 -34 92 -25 11 6 20 17
20 25 0 9 6 25 13 36 13 21 4 33 -49 65 -15 10 -16 15 -7 25 10 10 16 9 31 -4
26 -24 47 -21 67 9 23 35 15 47 -38 61 -34 10 -50 20 -61 42 -19 36 -143 101
-172 90 -10 -4 -37 -8 -60 -8 -50 -1 -89 -32 -80 -65 3 -11 8 -30 12 -42 4
-14 -3 -31 -20 -50 l-25 -29 -15 37 c-9 21 -16 56 -16 78 0 53 -18 52 -56 -2
-30 -43 -97 -88 -110 -75 -4 4 0 15 10 26 30 33 38 81 20 128 -13 33 -22 43
-39 43 -34 0 -88 -42 -108 -83 -21 -45 -34 -46 -72 -7 -16 16 -44 33 -62 36
-25 5 -33 11 -29 21 3 8 6 25 6 38 0 13 11 37 25 53 22 26 23 31 10 42 -14 11
-14 15 1 31 36 39 5 26 -96 -43z"/>
<path d="M5802 7773 c-14 -27 -3 -43 29 -43 32 0 89 -25 89 -39 0 -5 -7 -14
-15 -21 -21 -17 -19 -59 3 -67 9 -3 29 -17 44 -31 20 -18 33 -23 51 -18 32 8
27 35 -15 89 -17 21 -28 40 -26 43 3 2 18 1 35 -2 20 -4 37 -18 54 -45 13 -21
27 -39 31 -39 4 0 16 -9 27 -21 21 -23 32 -14 38 31 5 47 -16 79 -61 90 -22 6
-61 18 -86 26 -25 9 -57 18 -72 21 -15 3 -30 14 -33 24 -9 26 -80 27 -93 2z"/>
<path d="M6990 7401 c0 -6 -7 -11 -15 -11 -7 0 -18 -7 -23 -16 -6 -11 2 -25
30 -53 38 -39 49 -75 25 -84 -7 -3 -21 1 -31 8 -13 10 -25 11 -43 4 -27 -10
-63 3 -63 23 0 20 -53 68 -74 68 -32 0 -86 -130 -86 -203 0 -52 -2 -56 -32
-74 l-32 -19 -2 -103 c-1 -79 2 -104 12 -108 8 -3 14 -15 14 -28 0 -12 9 -29
20 -36 18 -13 19 -19 8 -122 -18 -170 14 -365 73 -449 37 -52 76 -153 81 -208
3 -43 13 -68 44 -115 l39 -60 58 -3 c52 -3 57 -5 57 -26 0 -13 8 -33 18 -45
20 -25 114 -61 159 -61 29 0 35 5 54 45 11 24 42 63 67 87 45 41 46 44 48 107
3 81 18 100 64 81 27 -11 34 -11 48 3 15 15 17 15 34 -11 l18 -27 0 40 c0 22
-7 86 -15 143 -43 300 -149 621 -285 864 -86 152 -270 418 -270 389z"/>
<path d="M3900 5539 c-32 -13 -60 -39 -60 -55 0 -10 9 -8 33 6 27 16 41 18 87
10 95 -15 143 -30 157 -50 8 -11 20 -20 27 -20 8 0 16 -6 19 -14 12 -31 147
-28 147 3 0 10 -45 32 -125 62 -33 13 -64 27 -69 31 -6 4 -18 8 -28 8 -10 0
-18 5 -18 11 0 8 -18 10 -60 6 -35 -4 -62 -3 -65 3 -7 12 -12 12 -45 -1z"/>
<path d="M986 424 c-50 -50 -21 -144 44 -144 48 0 80 50 66 104 -13 53 -75 75
-110 40z"/>
</g>
</svg>
