<svg height="512pt" viewBox="-6 0 512 512.00016" width="512pt" xmlns="http://www.w3.org/2000/svg"><path d="m490.699219 217.121094-10.890625 10.601562c.132812 1.980469.242187 3.960938.3125 5.929688.117187 2.917968.179687 5.839844.179687 8.78125 0 9.257812-.5625 18.398437-1.660156 27.378906-1.300781 10.789062-3.378906 21.359375-6.171875 31.636719-4.019531 14.851562-9.539062 29.121093-16.378906 42.628906-38.46875 76.089844-118.785156 128.480469-211.683594 128.679687l-27.519531 28.488282c-2.730469 2.839844-6.8125 3.921875-10.601563 2.832031l-73.769531-21.3125c-3.777344-1.089844-6.636719-4.1875-7.449219-8.046875l-7.878906-37.8125c-16.648438-10.328125-31.878906-22.617188-45.347656-36.546875-12.480469-12.902344-23.460938-27.199219-32.628906-42.640625-6.011719-10.089844-11.242188-20.660156-15.632813-31.636719-4.648437-11.632812-8.367187-23.703125-11.039063-36.152343-3.300781-15.320313-5.027343-31.21875-5.027343-47.496094 0-11.363282.839843-22.519532 2.46875-33.429688 3.628906-24.320312 11.160156-47.398437 21.949219-68.640625 13.050781-25.6875 30.878906-48.65625 52.359374-67.816406 42.039063-37.539063 98.085938-60.441406 159.617188-60.441406 9.757812 0 19.367188.582031 28.796875 1.703125 14.761719 1.75 29.089844 4.828125 42.878906 9.089844l18.980469-13.441407c3.21875-2.269531 7.429688-2.578125 10.941406-.800781l33.816406 17.089844c3.523438 1.78125 5.773438 5.351562 5.839844 9.28125l.441406 23.027344c35.558594 25.992187 63.347657 61.519531 79.378907 102.6875l9.738281 1.992187c3.859375.789063 6.972656 3.640625 8.082031 7.417969l10.667969 36.359375c1.121094 3.789062.050781 7.871093-2.769531 10.609375zm0 0" fill="#ff8b73"/><path d="m490.699219 217.121094-10.890625 10.601562c.132812 1.980469.242187 3.960938.3125 5.929688.117187 2.917968.179687 5.839844.179687 8.78125 0 9.257812-.5625 18.398437-1.660156 27.378906-1.300781 10.789062-3.378906 21.359375-6.171875 31.636719-4.019531 14.851562-9.539062 29.121093-16.378906 42.628906-38.46875 76.089844-118.785156 128.480469-211.683594 128.679687l-27.519531 28.488282c-2.730469 2.839844-6.8125 3.921875-10.601563 2.832031l-73.769531-21.3125c-3.777344-1.089844-6.636719-4.1875-7.449219-8.046875l-6.027344-28.941406c18.4375 3.859375 37.558594 5.890625 57.148438 5.890625 153.414062 0 277.78125-124.378907 277.78125-277.792969 0-14.703125-1.136719-29.132812-3.339844-43.210938 5.492188 9.628907 10.292969 19.667969 14.351563 30.078126l9.738281 1.992187c3.859375.789063 6.972656 3.640625 8.082031 7.417969l10.667969 36.359375c1.121094 3.789062.050781 7.871093-2.769531 10.609375zm0 0" fill="#ff5c3c"/><path d="m118.707031 174.683594c0 9.480468-3.839843 18.058594-10.050781 24.269531-6.207031 6.210937-14.789062 10.050781-24.269531 10.050781h-74.40625c3.628906-24.320312 11.160156-47.398437 21.949219-68.640625h52.457031c18.960937 0 34.320312 15.371094 34.320312 34.320313zm0 0" fill="#ff5c3c"/><path d="m272.703125 13.808594c-18.835937 16.085937-55.941406 33.480468-100.410156 45.546875-33.128907 8.984375-64.214844 13.351562-88.007813 13.191406 42.046875-37.539063 98.09375-60.4375 159.617188-60.4375 9.761718 0 19.371094.574219 28.800781 1.699219zm0 0" fill="#ffb5a6"/><path d="m480.300781 242.433594c0 9.257812-.5625 18.398437-1.660156 27.378906-1.300781 10.789062-3.378906 21.359375-6.171875 31.636719h-56.609375c-.878906-.019531-1.75-.027344-2.628906-.027344-25.46875 0-49.9375 10.097656-67.988281 28.136719-18.019532 18.03125-42.46875 28.160156-67.96875 28.160156h-238.0625c-6.011719-10.089844-11.242188-20.660156-15.632813-31.636719-4.648437-11.632812-8.367187-23.703125-11.039063-36.152343h264.734376c25.5 0 49.949218-10.136719 67.96875-28.167969 18.050781-18.039063 42.519531-28.140625 67.988281-28.140625.878906 0 1.75.011718 2.628906.03125h64.261719c.117187 2.917968.179687 5.839844.179687 8.78125zm0 0" fill="#ffb5a6"/><path d="m480.300781 242.433594c0 9.257812-.5625 18.398437-1.660156 27.378906-1.300781 10.789062-3.378906 21.359375-6.171875 31.636719h-49.46875c10.972656-21.15625 19.28125-43.898438 24.519531-67.796875h32.601563c.117187 2.917968.179687 5.839844.179687 8.78125zm0 0" fill="#ff8b73"/><path d="m478.640625 269.8125c-3.199219 26.386719-10.980469 51.398438-22.550781 74.265625h-40.230469c-7.308594-.199219-14.539063.441406-21.585937 1.863281-18.421876 3.699219-35.519532 12.75-49.03125 26.257813-9.019532 9.019531-19.628907 16.058593-31.179688 20.839843-11.558594 4.789063-24.039062 7.320313-36.789062 7.320313h-205.433594c-20.640625-21.332031-37.140625-46.5-48.261719-74.277344h253.695313c25.5 0 49.949218-10.132812 67.96875-28.160156 18.050781-18.039063 42.519531-28.140625 67.988281-28.140625.878906 0 1.75.011719 2.628906.03125zm0 0" fill="#ff5c3c"/><path d="m478.640625 269.8125c-3.199219 26.386719-10.980469 51.398438-22.550781 74.265625h-40.230469c-7.308594-.199219-14.539063.441406-21.585937 1.863281 17.988281-22.761718 32.488281-48.410156 42.675781-76.128906zm0 0" fill="#ff2e04"/><path d="m235.648438 212.507812c0 19.058594-15.453126 34.511719-34.515626 34.511719-19.058593 0-34.511718-15.453125-34.511718-34.511719 0-19.0625 15.453125-34.511718 34.511718-34.511718 19.0625 0 34.515626 15.449218 34.515626 34.511718zm0 0" fill="#ff2e04"/><path d="m235.644531 212.503906c0 19.066406-15.449219 34.519532-34.507812 34.519532-3.570313 0-7.011719-.542969-10.25-1.550782 14.050781-4.371094 24.25-17.480468 24.25-32.96875 0-15.492187-10.199219-28.589844-24.25-32.960937 3.238281-1.007813 6.679687-1.550781 10.25-1.550781 19.058593 0 34.507812 15.449218 34.507812 34.511718zm0 0" fill="#dd1f00"/><path d="m180.625 126.792969c0 12.007812-9.734375 21.742187-21.742188 21.742187-12.007812 0-21.742187-9.734375-21.742187-21.742187 0-12.007813 9.734375-21.742188 21.742187-21.742188 12.007813 0 21.742188 9.734375 21.742188 21.742188zm0 0" fill="#ff2e04"/><path d="m180.625 126.792969c0 12.011719-9.738281 21.742187-21.738281 21.742187-2.820313 0-5.519531-.542968-8-1.53125 8.050781-3.179687 13.738281-11.03125 13.738281-20.210937 0-9.179688-5.6875-17.027344-13.738281-20.207031 2.480469-.992188 5.179687-1.53125 8-1.53125 12 0 21.738281 9.730468 21.738281 21.738281zm0 0" fill="#dd1f00"/><path d="m265.210938 400.355469c0 7.785156-6.3125 14.097656-14.097657 14.097656-7.789062 0-14.101562-6.3125-14.101562-14.097656 0-7.789063 6.3125-14.097657 14.101562-14.097657 7.785157 0 14.097657 6.308594 14.097657 14.097657zm0 0" fill="#ff2e04"/><path d="m368.738281 119.152344c0 7.785156-6.3125 14.097656-14.101562 14.097656-7.785157 0-14.097657-6.3125-14.097657-14.097656 0-7.789063 6.3125-14.101563 14.097657-14.101563 7.789062 0 14.101562 6.3125 14.101562 14.101563zm0 0" fill="#ff2e04"/><path d="m265.125 64.503906h.101562.035157c4.125 0 7.480469-3.332031 7.5-7.464844.019531-4.140624-3.320313-7.515624-7.464844-7.53125h-.101563c-.015624 0-.023437 0-.039062 0-4.125 0-7.476562 3.332032-7.496094 7.464844-.023437 4.140625 3.320313 7.515625 7.464844 7.53125zm0 0"/><path d="m500.671875 204.402344-10.675781-36.363282c-1.894532-6.460937-7.171875-11.3125-13.773438-12.65625l-5.773437-1.179687c-16.167969-39.457031-42.832031-73.886719-77.425781-99.972656l-.359376-19.335938c-.128906-6.734375-3.9375-12.804687-9.953124-15.84375l-33.820313-17.09375c-6.015625-3.039062-13.160156-2.507812-18.65625 1.382813l-15.992187 11.324218c-22.757813-6.671874-46.398438-10.050781-70.339844-10.050781-49.824219 0-97.742188 14.554688-138.574219 42.089844-39.917969 26.917969-70.433594 64.316406-88.246094 108.144531-1.5625 3.839844.285157 8.214844 4.121094 9.773438 3.839844 1.558594 8.214844-.289063 9.773437-4.125 1.738282-4.277344 3.617188-8.488282 5.609376-12.632813h47.800781c14.789062 0 26.820312 12.03125 26.820312 26.820313 0 7.164062-2.789062 13.902344-7.855469 18.964844-5.0625 5.066406-11.796874 7.855468-18.964843 7.855468h-65.507813c.601563-3.160156 1.25-6.3125 1.992188-9.4375.957031-4.03125-1.535156-8.074218-5.5625-9.03125-4.027344-.953125-8.074219 1.535156-9.03125 5.566406-4.164063 17.550782-6.277344 35.664063-6.277344 53.835938 0 38.308594 9.0625 74.890625 26.941406 108.734375 1.34375 2.546875 3.945313 4 6.636719 4 1.183594 0 2.378906-.28125 3.496094-.871094 3.664062-1.933593 5.0625-6.472656 3.128906-10.136719-1.84375-3.492187-3.574219-7.023437-5.21875-10.582031h242.289063c27.683593 0 53.703124-10.78125 73.269531-30.355469 16.5-16.488281 39.347656-25.945312 62.683593-25.945312.824219 0 1.632813.007812 2.457032.027344.058594.003906.121094.003906.179687.003906h54.148438c-3.316407 20.667969-9.5625 40.585938-18.503907 59.269531h-35.542968c-28.296875-.71875-56.023438 10.3125-76.027344 30.316407-8.277344 8.277343-17.949219 14.742187-28.746094 19.210937-10.808594 4.472656-22.21875 6.742187-33.914062 6.742187h-5.910156c-3.054688-8.222656-10.980469-14.097656-20.253907-14.097656-9.273437 0-17.199219 5.875-20.253906 14.097656h-155.8125c-5.113281-5.445312-9.976563-11.136718-14.550781-17.09375-2.523438-3.285156-7.230469-3.902343-10.519532-1.375-3.28125 2.523438-3.898437 7.230469-1.375 10.515626 17.179688 22.355468 37.988282 41.402343 61.890626 56.652343l7.230468 34.699219c1.375 6.597656 6.25 11.855469 12.71875 13.722656l73.769532 21.308594c1.667968.484375 3.367187.71875 5.050781.71875 4.84375 0 9.554687-1.945312 13.027343-5.542969l25.328126-26.230469c41.140624-.609374 81.570312-11.363281 117.136718-31.183593 3.617188-2.015625 4.914063-6.582031 2.898438-10.199219s-6.582032-4.917969-10.203125-2.902344c-34.261719 19.097656-73.359375 29.230469-113.058594 29.3125-2.027344.003906-3.96875.832032-5.378906 2.292969l-27.515625 28.496094c-.808594.835937-2.003906 1.15625-3.121094.832031l-73.773438-21.3125c-1.117187-.324219-1.957031-1.230469-2.195312-2.371094l-7.878906-37.820312c-.421875-2.011719-1.648438-3.765625-3.394532-4.847656-10.878906-6.742188-21.085937-14.324219-30.582031-22.667969h140.308594c3.054687 8.222656 10.976563 14.097656 20.253906 14.097656 9.269531 0 17.195313-5.875 20.253907-14.097656h5.90625c13.675781 0 27.015624-2.652344 39.65625-7.886719 12.625-5.226562 23.9375-12.785156 33.613281-22.460938 17.132812-17.132812 40.875-26.582031 65.121093-25.929687.066407.003906.132813.003906.199219.003906h27.753907c-14.691407 25.414063-34.621094 48.097657-59.113282 66.683594-3.300781 2.503906-3.945312 7.207031-1.441406 10.507813 1.476562 1.945312 3.714844 2.964843 5.980469 2.964843 1.578125 0 3.171875-.496093 4.527343-1.523437 28.671876-21.757813 52.394532-49.957032 68.597657-81.546875 17.011719-33.15625 25.636719-68.898438 25.636719-106.230469 0-3.777344-.105469-7.710938-.308594-11.726562l8.429687-8.210938c4.828125-4.699219 6.644531-11.632812 4.746094-18.097656zm-249.558594 202.550781c-3.640625 0-6.601562-2.960937-6.601562-6.597656 0-3.640625 2.960937-6.601563 6.601562-6.601563 3.636719 0 6.597657 2.960938 6.597657 6.601563 0 3.636719-2.960938 6.597656-6.597657 6.597656zm-7.210937-387.339844c2.433594 0 4.863281.046875 7.289062.121094-20.328125 12.09375-49.382812 23.839844-80.863281 32.382813-22.261719 6.035156-44.125 10.101562-63.554687 11.890624 2.28125-1.660156 4.59375-3.285156 6.941406-4.867187 38.34375-25.859375 83.363281-39.527344 130.1875-39.527344zm172.050781 242.699219c-.910156-.019531-1.8125-.03125-2.726563-.03125-27.6875 0-53.714843 10.773438-73.289062 30.339844-16.734375 16.742187-38.988281 25.964844-62.664062 25.964844h-248.5625c-2.605469-6.953126-4.839844-14.011719-6.703126-21.160157h255.265626c27.683593 0 53.703124-10.78125 73.269531-30.355469 16.5-16.488281 39.347656-25.945312 62.6875-25.945312.820312 0 1.632812.007812 2.457031.027344.058594.003906.117188.003906.179688.003906h56.929687c.003906.425781.011719.855469.011719 1.28125 0 6.679688-.308594 13.308594-.902344 19.875zm69.507813-50.558594-10.882813 10.597656c-1.070313 1.042969-1.78125 2.371094-2.089844 3.804688h-56.535156c-.914063-.023438-1.8125-.03125-2.726563-.03125-27.6875 0-53.714843 10.773438-73.289062 30.335938-16.734375 16.746093-38.988281 25.964843-62.664062 25.964843h-258.628907c-2.421875-13.0625-3.644531-26.410156-3.644531-39.988281 0-8.683594.523438-17.347656 1.546875-25.933594h67.839844c11.175781 0 21.675781-4.351562 29.574219-12.25 7.898437-7.894531 12.246093-18.398437 12.246093-29.570312 0-23.058594-18.761719-41.820313-41.820312-41.820313h-39.855469c11.375-19.613281 25.714844-37.398437 42.613281-52.828125 24.9375-.195312 55.714844-4.929687 87.109375-13.445312 42.417969-11.507813 79.671875-28.167969 100.710938-44.9375 13.027344 1.722656 25.863281 4.535156 38.402344 8.417968 2.226562.6875 4.644531.304688 6.550781-1.046874l18.984375-13.441407c.949218-.671875 2.183594-.765625 3.222656-.238281l33.820312 17.09375c1.039063.523438 1.695313 1.574219 1.71875 2.738281l.429688 23.019531c.046875 2.34375 1.183594 4.53125 3.074219 5.914063 13.058593 9.542969 24.953125 20.328125 35.53125 32.164063-9.902344 40.039062-46.289063 68.734374-87.894531 68.734374h-78.101563c-4.140625 0-7.5 3.359376-7.5 7.5 0 4.140626 3.359375 7.5 7.5 7.5h78.101563c44.851562 0 84.480468-28.625 99.316406-69.859374 12.355468 16.285156 22.425781 34.195312 29.875 53.320312.925781 2.375 2.992187 4.117188 5.492187 4.625l9.734375 1.984375c1.140625.234375 2.054688 1.070313 2.382813 2.1875l10.675781 36.363281c.328125 1.113282.011719 2.3125-.820312 3.125zm0 0"/><path d="m201.136719 170.492188c-23.167969 0-42.015625 18.847656-42.015625 42.015624 0 23.164063 18.847656 42.011719 42.015625 42.011719 23.164062 0 42.011719-18.847656 42.011719-42.011719 0-23.167968-18.847657-42.015624-42.011719-42.015624zm0 69.027343c-14.898438 0-27.015625-12.117187-27.015625-27.011719 0-14.898437 12.117187-27.015624 27.015625-27.015624 14.894531 0 27.011719 12.117187 27.011719 27.015624 0 14.894532-12.117188 27.011719-27.011719 27.011719zm0 0"/><path d="m188.125 126.792969c0-16.125-13.117188-29.242188-29.242188-29.242188s-29.242187 13.117188-29.242187 29.242188 13.117187 29.242187 29.242187 29.242187 29.242188-13.117187 29.242188-29.242187zm-29.242188 14.246093c-7.855468 0-14.242187-6.390624-14.242187-14.246093 0-7.851563 6.390625-14.242188 14.242187-14.242188 7.851563 0 14.242188 6.390625 14.242188 14.242188 0 7.855469-6.390625 14.246093-14.242188 14.246093zm0 0"/><path d="m354.636719 97.550781c-11.90625 0-21.597657 9.691407-21.597657 21.601563 0 11.90625 9.6875 21.597656 21.597657 21.597656 11.910156 0 21.597656-9.691406 21.597656-21.597656 0-11.910156-9.6875-21.601563-21.597656-21.601563zm0 28.199219c-3.636719 0-6.597657-2.960938-6.597657-6.597656 0-3.640625 2.960938-6.601563 6.597657-6.601563 3.640625 0 6.597656 2.960938 6.597656 6.601563 0 3.636718-2.957031 6.597656-6.597656 6.597656zm0 0"/><path d="m306.765625 192.058594h-33.308594c-4.144531 0-7.5 3.355468-7.5 7.5 0 4.140625 3.355469 7.5 7.5 7.5h33.308594c4.144531 0 7.5-3.359375 7.5-7.5 0-4.144532-3.355469-7.5-7.5-7.5zm0 0"/><path d="m252.265625 80.050781h.105469.035156c4.125 0 7.476562-3.332031 7.5-7.464843.019531-4.140626-3.324219-7.515626-7.464844-7.535157h-.105468c-.011719 0-.023438 0-.035157 0-4.125 0-7.480469 3.335938-7.5 7.464844-.019531 4.144531 3.324219 7.515625 7.464844 7.535156zm0 0"/><path d="m217.671875 435.496094h.035156c4.125 0 7.476563-3.332032 7.5-7.464844.019531-4.140625-3.324219-7.515625-7.464843-7.53125h-.105469c-.011719 0-.023438 0-.035157 0-4.125 0-7.480468 3.332031-7.5 7.464844-.019531 4.140625 3.320313 7.515625 7.464844 7.53125zm0 0"/><path d="m272.757812 214.402344h-.105468c-4.144532 0-7.5 3.359375-7.5 7.5s3.355468 7.5 7.5 7.5h.105468c4.140626 0 7.5-3.359375 7.5-7.5s-3.359374-7.5-7.5-7.5zm0 0"/><path d="m209.324219 472.4375c-8.039063-4.355469-17.550781-8.285156-27.503907-11.355469-12.925781-3.992187-25.5625-6.28125-36.546874-6.628906-4.152344-.152344-7.601563 3.121094-7.730469 7.261719-.128907 4.140625 3.121093 7.601562 7.261719 7.730468 9.523437.300782 21.097656 2.417969 32.59375 5.96875 9.023437 2.785157 17.59375 6.316407 24.777343 10.210938 1.136719.613281 2.359375.90625 3.566407.90625 2.664062 0 5.242187-1.421875 6.601562-3.925781 1.972656-3.644531.621094-8.195313-3.019531-10.167969zm0 0"/><path d="m363.703125 58.507812c4.140625 0 7.5-3.359374 7.5-7.5 0-4.144531-3.359375-7.5-7.5-7.5-12.09375 0-23.402344-8.707031-26.410156-11.757812-2.90625-2.949219-7.65625-2.984375-10.605469-.074219-2.949219 2.90625-2.980469 7.65625-.074219 10.605469 5.53125 5.609375 20.40625 16.226562 37.089844 16.226562zm0 0"/><path d="m469.910156 180.003906c.050782-4.140625-3.265625-7.539062-7.40625-7.585937-4.160156-.082031-7.539062 3.265625-7.589844 7.410156-.117187 9.824219 1.75 23.46875 11.324219 32.675781 1.453125 1.398438 3.328125 2.09375 5.199219 2.09375 1.96875 0 3.933594-.769531 5.40625-2.300781 2.871094-2.984375 2.777344-7.730469-.207031-10.601563-6.007813-5.78125-6.792969-16.070312-6.726563-21.691406zm0 0"/></svg>