<?xml version="1.0" standalone="no"?>
<!DOCTYPE svg PUBLIC "-//W3C//DTD SVG 20010904//EN"
 "http://www.w3.org/TR/2001/REC-SVG-20010904/DTD/svg10.dtd">
<svg version="1.0" xmlns="http://www.w3.org/2000/svg"
 width="181.000000pt" height="141.000000pt" viewBox="0 0 181.000000 141.000000"
 preserveAspectRatio="xMidYMid meet">
<metadata>
Created by potrace 1.15, written by Peter Selinger 2001-2017
</metadata>
<g transform="translate(0.000000,141.000000) scale(0.100000,-0.100000)"
fill="#000000" stroke="none">
<path d="M1563 1298 c-77 -114 -88 -170 -45 -226 24 -32 87 -52 126 -41 79 22
107 107 65 192 -25 49 -88 137 -97 137 -4 0 -26 -28 -49 -62z"/>
<path d="M609 1301 c-16 -16 -29 -37 -29 -45 0 -25 36 -19 54 9 l16 25 295 0
c288 0 295 0 295 20 0 20 -7 20 -301 20 l-301 0 -29 -29z"/>
<path d="M1130 1223 c-26 -10 -60 -46 -60 -65 0 -24 32 -23 48 2 11 18 23 20
142 20 l130 0 0 25 0 25 -122 -1 c-68 0 -130 -3 -138 -6z"/>
<path d="M401 1158 c-32 -155 -158 -793 -157 -795 0 0 10 -3 21 -5 19 -3 24
17 75 270 l54 272 118 0 c111 0 118 1 118 20 0 19 -7 20 -110 20 -107 0 -110
1 -110 23 1 66 3 67 116 67 97 0 104 1 104 20 0 19 -7 20 -101 20 l-101 0 7
37 c4 21 9 41 11 45 3 5 70 8 149 8 142 0 145 0 150 -22 8 -36 125 -616 125
-621 0 -3 9 -3 20 0 11 3 20 10 20 17 0 14 -128 646 -135 664 -3 9 -49 12
-184 12 l-180 0 -10 -52z"/>
<path d="M920 1106 c0 -2 -11 -58 -25 -126 -14 -68 -25 -129 -25 -136 0 -11
26 -14 125 -14 118 0 125 1 125 20 0 19 -7 20 -100 20 -105 0 -106 1 -94 48 6
21 11 22 100 22 87 0 94 1 94 20 0 19 -7 20 -91 20 -90 0 -91 0 -85 23 3 12 6
30 6 40 0 15 13 17 135 17 74 0 135 -1 135 -2 1 -2 29 -142 63 -313 60 -296
64 -310 86 -313 20 -3 23 0 18 20 -3 12 -34 166 -68 341 l-62 317 -168 0 c-93
0 -169 -2 -169 -4z"/>
<path d="M420 405 l-51 -85 -140 0 -140 0 3 -82 c3 -77 5 -83 25 -86 22 -3 23
0 23 62 l0 66 129 0 129 0 49 83 49 82 337 3 336 2 21 -39 c13 -26 20 -60 20
-96 0 -48 2 -55 20 -55 17 0 20 7 20 50 l0 50 115 0 115 0 0 -105 c0 -98 1
-105 20 -105 19 0 20 7 20 130 l0 130 -139 0 -140 0 -22 40 -23 40 -362 0
-363 0 -51 -85z"/>
<path d="M47 112 c-9 -2 -17 -12 -17 -23 0 -19 15 -19 783 -17 768 3 782 3
782 23 0 19 -13 19 -766 20 -421 0 -773 -1 -782 -3z"/>
</g>
</svg>
