<?xml version="1.0" encoding="iso-8859-1"?>
<!-- Generator: Adobe Illustrator 19.0.0, SVG Export Plug-In . SVG Version: 6.00 Build 0)  -->
<svg version="1.1" id="Layer_1" xmlns="http://www.w3.org/2000/svg" xmlns:xlink="http://www.w3.org/1999/xlink" x="0px" y="0px"
	 viewBox="0 0 512 512" style="enable-background:new 0 0 512 512;" xml:space="preserve">
<path style="fill:#E2574C;" d="M256,0c141.384,0,256,114.616,256,256S397.384,512,256,512S0,397.384,0,256S114.616,0,256,0z"/>
<path style="fill:#CD4F45;" d="M378.772,196.04c-3.092-0.63-6.313,0.328-8.561,2.57l-72.822,74.26
	c-7.342,7.352-32.026,1.981-48.64-4.5c-6.492-16.614-11.858-41.303-4.536-48.64l74.624-72.468c2.243-2.237,3.215-5.448,2.57-8.54
	c-0.64-3.103-2.816-5.668-5.74-6.835c-46.49-18.488-99.395-7.588-134.758,27.761c-31.222,31.222-42.793,75.003-33.628,115.702
	c-1.178,20.173-19.517,43.812-29,53.453L45.414,401.51c18.668,26.972,42.373,50.171,69.77,68.255l69.412-69.284
	c9.733-9.59,36.019-27.668,56.044-29.742c3.021,0.195,9.272,0.609,10.66,0.917l-0.01-0.118
	c39.045,5.673,78.484-7.076,106.537-35.092c35.364-35.308,46.285-88.192,27.791-134.651
	C384.451,198.845,381.88,196.685,378.772,196.04L378.772,196.04z"/>
<path style="fill:#EDEDED;" d="M378.772,190.92c-3.092-0.63-6.313,0.328-8.561,2.57l-72.822,74.26
	c-7.342,7.352-32.026,1.981-48.64-4.5c-6.492-16.614-11.858-41.303-4.536-48.64l74.624-72.468c2.243-2.237,3.215-5.448,2.57-8.54
	c-0.64-3.103-2.816-5.668-5.74-6.835c-46.49-18.488-99.395-7.588-134.758,27.761c-31.222,31.222-42.793,75.003-33.628,115.702
	c-1.178,20.173-19.517,43.812-29,53.453L43.305,398.49c18.289,27.244,41.672,50.775,68.787,69.238l72.499-72.371
	c9.733-9.59,36.019-27.668,56.044-29.742c3.021,0.195,9.272,0.609,10.66,0.916l-0.01-0.118
	c39.045,5.673,78.484-7.076,106.537-35.092c35.364-35.308,46.285-88.192,27.791-134.651
	C384.451,193.725,381.88,191.565,378.772,190.92L378.772,190.92z"/>
<g>
	<path style="fill:#E1E1E1;" d="M393.533,228.127c0.65,5.56,0.957,11.136,0.87,16.691c-0.374-14.49-3.226-29.046-8.791-43.023
		c-1.167-2.944-3.732-5.11-6.845-5.75c-3.092-0.63-6.313,0.328-8.561,2.57L297.39,272.87c-7.342,7.352-32.026,1.981-48.64-4.5
		c-0.568-1.454-1.126-2.975-1.674-4.541L74.45,436.459c11.505,11.576,24.11,22.052,37.647,31.268l72.499-72.371
		c9.733-9.59,36.019-27.668,56.044-29.742c3.021,0.195,9.272,0.609,10.66,0.917l-0.01-0.118
		c39.045,5.673,78.485-7.076,106.537-35.092C385.382,303.805,398.013,265.626,393.533,228.127z M389.089,206.72l-0.748-2.381
		L389.089,206.72z M393.252,225.812c-0.2-1.485-0.425-2.959-0.686-4.434C392.822,222.853,393.052,224.333,393.252,225.812z
		 M391.608,216.525l-0.891-3.86L391.608,216.525z"/>
</g>
<path style="fill:#F4F4F4;" d="M180.91,159.647c35.364-35.348,88.269-46.249,134.758-27.761c2.734,1.091,4.767,3.43,5.545,6.267
	c0.435-1.459,0.517-3.016,0.195-4.552c-0.64-3.103-2.816-5.668-5.74-6.835c-46.49-18.488-99.395-7.588-134.758,27.761
	c-24.632,24.632-36.982,57.088-36.613,89.677C145.213,213.35,157.568,182.989,180.91,159.647z M118.282,323.681L43.305,398.49
	l2.104,3.021l72.868-72.709c9.477-9.646,27.817-33.28,29-53.453l-0.353-1.848C144.138,292.895,127.252,314.552,118.282,323.681
	L118.282,323.681z"/>
<path style="fill:#CCD0D2;" d="M147,346.711l-80.927,80.922c5.734,6.339,11.781,12.401,18.12,18.14l80.937-80.937
	c5.007-5.012,5.007-13.123,0-18.13C160.123,341.699,152.008,341.704,147,346.711z"/>
<path style="fill:#B8BCBE;" d="M147,346.711l-80.927,80.922l2.478,2.647L147,351.831c5.012-5.007,13.123-5.007,18.13,0
	c1.848,1.848,3,4.122,3.487,6.508c0.829-4.076-0.328-8.463-3.487-11.628C160.123,341.704,152.008,341.704,147,346.711L147,346.711z"
	/>
<g>
</g>
<g>
</g>
<g>
</g>
<g>
</g>
<g>
</g>
<g>
</g>
<g>
</g>
<g>
</g>
<g>
</g>
<g>
</g>
<g>
</g>
<g>
</g>
<g>
</g>
<g>
</g>
<g>
</g>
</svg>
