<?xml version="1.0" standalone="no"?>
<!DOCTYPE svg PUBLIC "-//W3C//DTD SVG 20010904//EN"
 "http://www.w3.org/TR/2001/REC-SVG-20010904/DTD/svg10.dtd">
<svg version="1.0" xmlns="http://www.w3.org/2000/svg"
 width="1000.000000pt" height="846.000000pt" viewBox="0 0 1000.000000 846.000000"
 preserveAspectRatio="xMidYMid meet">
<metadata>
Created by potrace 1.15, written by Peter Selinger 2001-2017
</metadata>
<g transform="translate(0.000000,846.000000) scale(0.100000,-0.100000)"
fill="#000000" stroke="none">
<path d="M2454 8426 l-34 -34 0 -697 0 -697 -201 -822 c-233 -955 -231 -947
-610 -2496 -160 -652 -351 -1434 -425 -1738 l-135 -554 -516 -681 c-283 -374
-517 -687 -520 -694 -4 -11 857 -13 4992 -13 2748 0 4995 4 4993 8 -1 4 -367
489 -813 1077 -1803 2382 -2372 3134 -2594 3428 -190 251 -236 306 -246 295
-6 -7 -68 -87 -137 -178 -218 -289 -593 -784 -605 -800 -10 -12 -12 99 -13
526 l0 542 118 4 c137 4 200 26 226 77 23 43 24 587 1 630 -15 31 -86 71 -123
71 -12 0 -22 6 -21 13 0 6 66 282 147 612 l148 600 103 5 c97 5 104 6 127 33
21 25 24 38 24 117 0 167 6 164 -334 167 l-270 3 -18 87 c-86 427 -411 795
-823 932 -155 51 -235 64 -405 64 -184 1 -307 -22 -467 -84 -177 -70 -374
-209 -490 -348 l-58 -69 -5 291 c-3 161 -9 300 -14 310 -22 46 -38 47 -517 47
l-451 0 -34 -34z m716 -172 c0 -8 -196 -292 -214 -312 -10 -10 -35 20 -122
145 -60 86 -110 160 -112 165 -2 4 98 8 222 8 124 0 226 -3 226 -6z m1230
-433 l0 -349 -37 -13 c-21 -6 -54 -20 -74 -30 l-36 -18 -243 244 c-212 212
-242 246 -230 260 22 27 157 113 236 150 83 40 219 81 309 94 33 5 63 9 68 10
4 0 7 -156 7 -348z m320 322 c97 -20 215 -63 299 -109 61 -34 191 -123 191
-132 0 -2 -111 -113 -247 -247 l-246 -243 -36 19 c-20 11 -53 24 -73 30 l-38
10 0 349 0 349 38 -5 c20 -3 71 -12 112 -21z m-2000 -243 c50 -72 93 -136 96
-143 4 -11 -146 -239 -182 -277 -12 -12 -14 25 -14 268 0 155 2 282 4 282 3 0
46 -59 96 -130z m548 -292 l-3 -142 -98 142 -98 142 98 141 98 141 3 -141 c1
-78 1 -205 0 -283z m844 -345 l-16 -33 -313 0 -313 0 0 141 0 142 42 78 c23
43 62 104 86 135 l44 57 243 -243 243 -243 -16 -34z m1270 454 c90 -121 157
-272 192 -424 12 -55 12 -62 -2 -65 -8 -2 -168 -1 -354 2 l-338 5 -20 30 -20
30 243 243 c133 133 244 242 247 242 4 0 27 -28 52 -63z m-2323 -306 c61 -87
111 -162 111 -165 0 -3 -102 -6 -226 -6 -124 0 -224 4 -222 8 4 11 221 322
224 322 1 0 52 -72 113 -159z m192 -593 c45 -225 146 -430 294 -595 l55 -62 0
-234 0 -235 -232 -4 c-221 -3 -235 -4 -281 -27 -77 -37 -77 -39 -77 -366 0
-329 1 -333 78 -368 39 -18 70 -22 190 -25 l142 -4 0 -1095 c0 -602 -4 -1092
-8 -1089 -4 3 -158 203 -342 445 -183 243 -336 441 -340 441 -6 0 -324 -416
-728 -952 -24 -32 -45 -58 -46 -58 -2 0 28 127 66 283 38 155 170 696 294
1202 124 506 326 1334 450 1840 124 506 229 937 235 958 l10 38 111 -3 111 -3
18 -87z m841 43 l24 -50 -238 -238 c-228 -227 -238 -237 -253 -218 -30 38 -91
130 -117 175 -53 93 -117 287 -118 353 l0 27 339 0 338 0 25 -49z m1492 41
c15 -24 -51 -236 -107 -347 -37 -74 -132 -215 -145 -215 -4 0 -113 106 -242
235 l-234 234 24 51 23 50 338 0 c186 0 340 -4 343 -8z m275 1 c0 -5 -66 -278
-147 -608 l-148 -600 -102 -3 -102 -3 0 231 0 232 52 54 c150 158 271 394 312
614 9 45 16 84 16 86 0 2 27 4 60 4 33 0 60 -3 59 -7z m-1539 -404 l0 -139
-207 0 -208 0 164 164 163 163 44 -24 44 -25 0 -139z m580 26 l165 -165 -213
0 -212 0 0 138 0 137 48 26 c26 15 47 27 47 28 0 0 74 -73 165 -164z m-580
-2075 l0 -450 -320 0 -320 0 0 450 0 450 320 0 320 0 0 -450z m1000 0 l0 -450
-340 0 -340 0 0 450 0 450 340 0 340 0 0 -450z m-1000 -1230 l0 -509 -316 -3
c-174 -2 -318 -1 -320 1 -2 2 -4 233 -4 513 l0 508 320 0 320 0 0 -510z m1000
373 l0 -137 -282 -373 -281 -373 -59 0 -58 0 0 510 0 510 340 0 340 0 0 -137z
m890 -123 c-44 -113 -316 -815 -604 -1560 l-524 -1355 -582 -3 c-467 -2 -581
0 -573 10 6 7 187 247 404 533 216 286 737 974 1157 1530 421 555 771 1020
780 1033 8 12 16 21 18 19 2 -1 -33 -95 -76 -207z m-3613 -794 c-29 -73 -225
-581 -437 -1129 l-385 -997 -422 0 -422 0 456 603 c251 331 636 839 855 1130
220 290 401 527 403 527 2 0 -20 -60 -48 -134z m1723 -389 l0 -154 -118 -156
-119 -155 -201 266 c-190 250 -202 269 -202 309 l0 43 320 0 320 0 0 -153z"/>
</g>
</svg>
